<?xml version="1.0" standalone="no"?>
<!DOCTYPE svg PUBLIC "-//W3C//DTD SVG 20010904//EN"
 "http://www.w3.org/TR/2001/REC-SVG-20010904/DTD/svg10.dtd">
<svg version="1.0" xmlns="http://www.w3.org/2000/svg"
 width="1000.000000pt" height="1000.000000pt" viewBox="0 0 1000.000000 1000.000000"
 preserveAspectRatio="xMidYMid meet">
<metadata>
Created by potrace 1.11, written by Peter Selinger 2001-2013
</metadata>
<g transform="translate(0.000000,1000.000000) scale(0.100000,-0.100000)"
fill="#000000" stroke="none">
<path d="M6405 8663 c-214 -14 -516 -60 -990 -152 -516 -100 -442 -93 -612
-54 -187 43 -461 92 -813 145 l-275 42 -395 0 c-310 0 -429 -3 -555 -17 -154
-17 -472 -63 -507 -73 -9 -3 -20 -19 -24 -37 -12 -58 -7 -210 9 -268 16 -53
19 -56 71 -78 l55 -22 75 -227 c41 -125 96 -294 122 -376 132 -424 256 -578
582 -726 142 -64 246 -89 392 -97 146 -7 375 18 478 53 277 92 491 293 613
575 23 52 63 170 89 263 59 203 87 263 161 338 84 85 136 89 213 17 49 -44 60
-68 161 -333 135 -355 205 -493 309 -603 116 -124 196 -174 378 -237 153 -52
241 -67 398 -68 224 0 407 34 555 106 163 78 276 186 388 372 25 42 81 192
176 473 l139 411 65 63 c50 48 70 75 86 120 25 69 27 153 6 225 l-16 51 -66
21 c-73 22 -238 40 -383 40 -52 0 -145 9 -205 20 -210 36 -452 48 -680 33z"/>
<path d="M2601 6685 c-160 -36 -272 -85 -393 -172 -108 -77 -204 -175 -251
-254 -116 -198 -140 -514 -58 -755 38 -111 102 -204 219 -315 164 -156 313
-252 468 -299 l72 -21 -55 -122 c-153 -341 -226 -664 -240 -1062 -6 -179 -6
-180 20 -235 61 -128 172 -227 442 -394 62 -38 174 -168 341 -396 l135 -185
207 -136 207 -136 34 -74 c62 -136 222 -263 408 -323 44 -15 55 -24 73 -59 28
-53 64 -93 115 -122 42 -25 149 -55 198 -55 19 0 37 -10 54 -30 30 -36 98 -72
168 -89 28 -7 89 -37 137 -68 l88 -55 52 33 c29 17 71 47 94 65 32 27 50 34
84 34 68 0 121 21 166 65 37 37 48 42 119 53 110 17 166 51 235 141 54 71 57
73 160 115 132 53 155 65 218 116 57 45 105 119 124 193 11 44 18 51 73 84
105 64 257 170 344 241 76 62 99 90 245 302 l161 234 105 61 c204 118 356 233
404 305 61 93 79 260 47 445 -11 66 -32 195 -46 286 -51 330 -119 548 -253
812 -2 4 8 7 23 7 49 0 180 32 247 60 194 81 435 327 511 520 75 193 55 524
-43 721 -57 114 -120 182 -267 290 -95 69 -192 117 -319 155 -80 25 -105 28
-244 28 -174 1 -227 -8 -337 -60 -176 -83 -271 -246 -235 -402 20 -87 121
-220 209 -275 46 -29 150 -67 183 -67 20 0 18 4 -14 42 -138 161 -92 312 113
372 124 36 230 8 324 -85 98 -99 158 -264 142 -394 -9 -72 -58 -168 -104 -205
-101 -79 -238 -115 -411 -106 -126 6 -207 24 -284 63 -81 41 -100 60 -183 176
-177 250 -367 399 -577 452 -248 63 -555 55 -942 -24 l-134 -28 -99 23 c-356
80 -697 92 -929 34 -215 -55 -422 -218 -599 -475 -65 -94 -89 -116 -164 -155
-82 -42 -160 -60 -289 -66 -230 -12 -414 62 -479 191 -77 155 -33 372 104 511
104 105 221 129 366 75 60 -23 124 -77 140 -118 26 -69 2 -154 -69 -242 l-36
-44 45 7 c163 24 356 213 374 365 9 75 -14 166 -56 227 -55 81 -172 157 -294
191 -74 21 -315 26 -394 8z m2556 -1375 c162 -81 410 -150 898 -250 277 -56
280 -57 276 -81 -9 -64 -86 -358 -123 -466 l-40 -123 -57 -35 c-86 -54 -165
-75 -285 -75 -168 0 -297 33 -574 144 l-237 95 -70 -14 c-48 -10 -117 -38
-220 -90 -273 -138 -535 -188 -706 -135 -188 58 -238 132 -324 475 -61 246
-61 245 -32 245 39 0 402 69 587 112 309 71 581 172 704 261 l49 36 36 -29
c20 -16 73 -47 118 -70z"/>
</g>
</svg>
