<svg height='100px' width='100px'  fill="#000000" xmlns:dc="http://purl.org/dc/elements/1.1/" xmlns:cc="http://creativecommons.org/ns#" xmlns:rdf="http://www.w3.org/1999/02/22-rdf-syntax-ns#" xmlns:svg="http://www.w3.org/2000/svg" xmlns="http://www.w3.org/2000/svg" xmlns:sodipodi="http://sodipodi.sourceforge.net/DTD/sodipodi-0.dtd" xmlns:inkscape="http://www.inkscape.org/namespaces/inkscape" version="1.1" x="0px" y="0px" viewBox="0 0 100 100" enable-background="new 0 0 100 100" xml:space="preserve"><path style="" d="m 19.164483,10.309033 c 5.644026,-1.0449854 11.217008,-1.3795474 16.712971,-0.9439244 4.706621,0.6390244 9.368057,1.3119384 13.492534,2.3875684 5.682039,-0.942621 11.36408,-2.4346754 17.046119,-2.7207154 2.41394,-0.165416 4.952523,-0.01935 7.662426,0.555248 2.228673,0.184613 4.720775,-0.0698 6.551931,0.7773474 0.26581,1.048203 0.811568,1.727794 -0.33315,3.886738 l -1.221547,1.054972 c -1.1097,3.108594 -2.090124,6.087911 -3.053866,9.050546 -1.283021,2.392317 -2.823256,4.639951 -6.440879,5.719057 -2.848834,0.619422 -5.742413,0.970355 -8.883972,-0.166572 -1.362866,-0.560264 -2.406393,-0.481855 -4.886182,-3.275966 -1.717285,-2.498618 -2.39822,-4.997232 -3.442541,-7.49585 -1.225348,-4.365824 -3.827506,-3.575875 -5.163808,0.166572 -0.669776,2.712617 -1.430317,5.407081 -3.553587,7.828999 -1.336315,1.152636 -2.371379,2.351618 -5.552483,3.22044 -2.689993,0.374975 -5.382884,0.718068 -8.217675,-0.499724 C 28.454985,29.164404 27.060882,28.696828 25.494313,27.022004 24.501094,25.849753 23.767105,24.418275 23.217797,22.802116 22.38239,20.152899 21.583624,17.540323 20.60813,14.751019 L 19.386584,14.19577 c -0.509531,-1.29558 -0.447478,-2.591157 -0.222101,-3.886737 z m 43.897855,46.571332 c -1.42298,1.067234 -3.201706,1.956596 -8.004263,0.533616 -1.245106,-0.533616 -3.201704,-1.245107 -4.802557,-1.956599 -2.490213,0.177874 -3.913194,1.778729 -5.514046,2.13447 -2.490216,0.711492 -4.802556,1.422983 -7.292773,-0.177873 -1.245107,-0.71149 -2.009801,-3.834824 -2.721288,-7.392273 7.497348,-1.190484 13.105104,-2.672276 15.301746,-4.691425 2.029139,1.999351 7.618223,3.143478 15.014752,4.593017 -0.533618,2.312345 -1.09221,4.822596 -1.981571,6.957067 z M 79.999087,49.68374 c 4.645792,-3.260511 5.282452,-6.086291 5.192829,-8.68864 -0.149818,-5.62031 -2.685101,-6.922996 -4.989194,-8.586792 -2.411948,-1.210766 -5.013404,-1.877644 -8.145575,-1.018209 -2.844992,1.072697 -3.954332,2.830432 -3.360055,5.260703 1.265491,2.351281 2.786125,3.171627 4.412175,3.360017 -2.737869,-2.702355 -0.700769,-4.806573 2.341861,-4.853423 3.30273,0.427216 4.784971,4.919518 3.32611,7.229214 -1.800394,2.847807 -8.469261,2.383745 -9.978329,0.03122 -1.470224,-2.291898 -3.619061,-4.679553 -6.177057,-5.634065 -2.851725,-0.956122 -6.870587,-1.02003 -12.795385,0.373665 -5.924794,-1.393955 -9.604252,-1.330047 -12.455954,-0.373665 -2.558009,0.954512 -4.706853,3.342166 -6.177072,5.634065 -1.509086,2.355238 -8.177919,2.819352 -9.978348,-0.03122 -1.458863,-2.309698 0.02324,-6.801947 3.326113,-7.229214 3.042653,0.04403 5.079749,2.151068 2.341861,4.853423 1.626068,-0.187925 3.146684,-1.008736 4.412187,-3.360017 0.594279,-2.430277 -0.515089,-4.188006 -3.360059,-5.260703 -3.132176,-0.859435 -5.733614,-0.192925 -8.145581,1.018209 -2.304096,1.663794 -4.971972,3.099061 -4.98918,8.586792 0.08712,2.911709 0.547029,5.428129 5.192817,8.688638 1.308621,0.953157 2.62991,1.478071 3.91583,1.737448 -2.592878,5.168218 -3.517068,9.703131 -3.358266,15.420038 0.71149,1.956595 2.490214,3.201702 4.44681,4.446811 1.600854,0.533617 3.913196,4.091068 6.047666,6.937027 l 4.624684,3.023832 c 0.889363,2.845955 3.55745,4.091061 5.514049,4.624685 0.533617,1.245106 1.245105,2.312344 4.091065,2.49021 0.71149,1.067235 1.778725,1.245105 2.668087,1.422975 l 1.956599,1.245117 c 0.533617,-0.355747 1.245106,-0.711497 1.956596,-1.422987 1.067235,0 1.956598,0 2.84596,-1.245105 1.42298,-0.177866 2.668087,0 4.091065,-2.49021 2.312343,-0.889359 4.802558,-1.60085 5.158303,-4.446818 1.422979,-0.88936 2.845959,-1.600847 5.514046,-3.91319 l 3.557451,-5.1583 c -0.177874,0 3.023832,-1.600856 4.624683,-3.023835 1.245107,-1.067234 1.956599,-1.60085 1.778725,-5.336172 -0.793185,-3.490015 -0.644112,-7.775027 -3.552284,-13.08286 1.613534,-0.170836 2.961341,-0.52904 4.124767,-1.228664 z" fill-opacity="1"></path></svg>
